<mxfile host="app.diagrams.net" modified="2024-01-08T07:38:29.174Z" agent="Mozilla/5.0 (Windows NT 10.0; Win64; x64) AppleWebKit/537.36 (KHTML, like Gecko) Chrome/120.0.0.0 Safari/537.36" etag="Ej7tH2opvprqhK6Ee0OQ" version="22.1.17" type="github">
  <diagram name="Page-1" id="r5gYBYdjgpOXSj76dRsq">
    <mxGraphModel dx="1050" dy="1657" grid="1" gridSize="10" guides="1" tooltips="1" connect="1" arrows="1" fold="1" page="1" pageScale="1" pageWidth="850" pageHeight="1100" math="0" shadow="0">
      <root>
        <mxCell id="0" />
        <mxCell id="1" parent="0" />
        <mxCell id="WhPxkiABMtSOjkCP8UJv-1" value="&lt;b&gt;Cache&lt;/b&gt;" style="image;aspect=fixed;html=1;points=[];align=center;fontSize=12;image=img/lib/azure2/databases/Cache_Redis.svg;" vertex="1" parent="1">
          <mxGeometry x="670" y="-192" width="64" height="52" as="geometry" />
        </mxCell>
        <mxCell id="WhPxkiABMtSOjkCP8UJv-2" value="" style="verticalLabelPosition=bottom;html=1;verticalAlign=top;align=center;strokeColor=none;fillColor=#00BEF2;shape=mxgraph.azure.user;" vertex="1" parent="1">
          <mxGeometry x="27.5" y="-310" width="47.5" height="50" as="geometry" />
        </mxCell>
        <mxCell id="WhPxkiABMtSOjkCP8UJv-5" style="edgeStyle=orthogonalEdgeStyle;rounded=0;orthogonalLoop=1;jettySize=auto;html=1;" edge="1" parent="1">
          <mxGeometry relative="1" as="geometry">
            <mxPoint x="407.5" y="-286" as="targetPoint" />
            <mxPoint x="260" y="-286.5" as="sourcePoint" />
          </mxGeometry>
        </mxCell>
        <mxCell id="WhPxkiABMtSOjkCP8UJv-3" value="" style="verticalLabelPosition=bottom;html=1;verticalAlign=top;align=center;strokeColor=none;fillColor=#00BEF2;shape=mxgraph.azure.azure_load_balancer;rotation=-90;" vertex="1" parent="1">
          <mxGeometry x="217.5" y="-303" width="50" height="35" as="geometry" />
        </mxCell>
        <mxCell id="WhPxkiABMtSOjkCP8UJv-17" value="" style="rounded=1;whiteSpace=wrap;html=1;" vertex="1" parent="1">
          <mxGeometry x="407.5" y="-530" width="150" height="510" as="geometry" />
        </mxCell>
        <mxCell id="WhPxkiABMtSOjkCP8UJv-22" style="edgeStyle=orthogonalEdgeStyle;rounded=0;orthogonalLoop=1;jettySize=auto;html=1;entryX=0.5;entryY=0;entryDx=0;entryDy=0;" edge="1" parent="1" source="WhPxkiABMtSOjkCP8UJv-6" target="WhPxkiABMtSOjkCP8UJv-19">
          <mxGeometry relative="1" as="geometry" />
        </mxCell>
        <mxCell id="WhPxkiABMtSOjkCP8UJv-6" value="&lt;b&gt;Write Server&lt;/b&gt;" style="sketch=0;outlineConnect=0;fontColor=#232F3E;gradientColor=none;fillColor=#232F3D;strokeColor=none;dashed=0;verticalLabelPosition=bottom;verticalAlign=top;align=center;html=1;fontSize=12;fontStyle=0;aspect=fixed;pointerEvents=1;shape=mxgraph.aws4.traditional_server;" vertex="1" parent="1">
          <mxGeometry x="460" y="-510" width="45" height="78" as="geometry" />
        </mxCell>
        <mxCell id="WhPxkiABMtSOjkCP8UJv-23" style="edgeStyle=orthogonalEdgeStyle;rounded=0;orthogonalLoop=1;jettySize=auto;html=1;entryX=0;entryY=0.5;entryDx=0;entryDy=0;" edge="1" parent="1" source="WhPxkiABMtSOjkCP8UJv-14" target="WhPxkiABMtSOjkCP8UJv-19">
          <mxGeometry relative="1" as="geometry" />
        </mxCell>
        <mxCell id="WhPxkiABMtSOjkCP8UJv-14" value="&lt;b&gt;Write Server&lt;/b&gt;" style="sketch=0;outlineConnect=0;fontColor=#232F3E;gradientColor=none;fillColor=#232F3D;strokeColor=none;dashed=0;verticalLabelPosition=bottom;verticalAlign=top;align=center;html=1;fontSize=12;fontStyle=0;aspect=fixed;pointerEvents=1;shape=mxgraph.aws4.traditional_server;" vertex="1" parent="1">
          <mxGeometry x="460" y="-388" width="45" height="78" as="geometry" />
        </mxCell>
        <mxCell id="WhPxkiABMtSOjkCP8UJv-21" style="edgeStyle=orthogonalEdgeStyle;rounded=0;orthogonalLoop=1;jettySize=auto;html=1;" edge="1" parent="1" source="WhPxkiABMtSOjkCP8UJv-15" target="WhPxkiABMtSOjkCP8UJv-1">
          <mxGeometry relative="1" as="geometry" />
        </mxCell>
        <mxCell id="WhPxkiABMtSOjkCP8UJv-15" value="&lt;b&gt;Read Server&lt;/b&gt;" style="sketch=0;outlineConnect=0;fontColor=#232F3E;gradientColor=none;fillColor=#232F3D;strokeColor=none;dashed=0;verticalLabelPosition=bottom;verticalAlign=top;align=center;html=1;fontSize=12;fontStyle=0;aspect=fixed;pointerEvents=1;shape=mxgraph.aws4.traditional_server;" vertex="1" parent="1">
          <mxGeometry x="460" y="-140" width="45" height="78" as="geometry" />
        </mxCell>
        <mxCell id="WhPxkiABMtSOjkCP8UJv-8" value="&lt;b&gt;Read Server&lt;/b&gt;" style="sketch=0;outlineConnect=0;fontColor=#232F3E;gradientColor=none;fillColor=#232F3D;strokeColor=none;dashed=0;verticalLabelPosition=bottom;verticalAlign=top;align=center;html=1;fontSize=12;fontStyle=0;aspect=fixed;pointerEvents=1;shape=mxgraph.aws4.traditional_server;" vertex="1" parent="1">
          <mxGeometry x="460" y="-260" width="45" height="78" as="geometry" />
        </mxCell>
        <mxCell id="WhPxkiABMtSOjkCP8UJv-18" style="edgeStyle=orthogonalEdgeStyle;rounded=0;orthogonalLoop=1;jettySize=auto;html=1;entryX=0.5;entryY=0;entryDx=0;entryDy=0;entryPerimeter=0;" edge="1" parent="1" source="WhPxkiABMtSOjkCP8UJv-2" target="WhPxkiABMtSOjkCP8UJv-3">
          <mxGeometry relative="1" as="geometry" />
        </mxCell>
        <mxCell id="WhPxkiABMtSOjkCP8UJv-19" value="&lt;b&gt;RDBMS&lt;/b&gt;" style="shape=datastore;whiteSpace=wrap;html=1;" vertex="1" parent="1">
          <mxGeometry x="670" y="-350" width="60" height="60" as="geometry" />
        </mxCell>
        <mxCell id="WhPxkiABMtSOjkCP8UJv-20" style="edgeStyle=orthogonalEdgeStyle;rounded=0;orthogonalLoop=1;jettySize=auto;html=1;entryX=0.038;entryY=0.542;entryDx=0;entryDy=0;entryPerimeter=0;" edge="1" parent="1" source="WhPxkiABMtSOjkCP8UJv-8" target="WhPxkiABMtSOjkCP8UJv-1">
          <mxGeometry relative="1" as="geometry" />
        </mxCell>
        <mxCell id="WhPxkiABMtSOjkCP8UJv-25" style="edgeStyle=orthogonalEdgeStyle;rounded=0;orthogonalLoop=1;jettySize=auto;html=1;" edge="1" parent="1" source="WhPxkiABMtSOjkCP8UJv-24">
          <mxGeometry relative="1" as="geometry">
            <mxPoint x="344" y="-290" as="targetPoint" />
          </mxGeometry>
        </mxCell>
        <mxCell id="WhPxkiABMtSOjkCP8UJv-24" value="&lt;b&gt;CDN&lt;/b&gt;" style="image;aspect=fixed;html=1;points=[];align=center;fontSize=12;image=img/lib/azure2/networking/CDN_Profiles.svg;" vertex="1" parent="1">
          <mxGeometry x="310" y="-241" width="68" height="40" as="geometry" />
        </mxCell>
      </root>
    </mxGraphModel>
  </diagram>
</mxfile>
